<svg width="210" height="37" viewBox="0 0 210 37" version="1.1" xmlns="http://www.w3.org/2000/svg" xmlns:xlink="http://www.w3.org/1999/xlink">
<title>logo</title>
<desc>Created using Figma</desc>
<g id="Canvas" transform="translate(727 349)">
<g id="logo">
<g id="Vector">
<use xlink:href="#path0_fill" transform="translate(-727 -349)" fill="#F14900"/>
</g>
<g id="opone">
<use xlink:href="#path1_fill" transform="translate(-693 -360)" fill="#FFFFFF"/>
</g>
</g>
</g>
<defs>
<path id="path0_fill" d="M 11.8529 8.22222L 2.50735 11.6842L 0 5.40936L 15.9559 0L 31 5.84211L 28.7206 11.6842L 19.375 8.22222L 19.375 37L 11.8529 37L 11.8529 8.22222Z"/>
<path id="path1_fill" d="M 2.75957 29.15C 2.75957 39.5 10.4096 47.6 20.6596 47.6C 30.9596 47.6 38.5596 39.5 38.5596 29.15C 38.5596 19.1 30.9596 11.25 20.6596 11.25C 10.4096 11.25 2.75957 19.1 2.75957 29.15ZM 6.35957 29.15C 6.35957 20.85 12.4596 14.5 20.6596 14.5C 28.9096 14.5 34.9596 20.85 34.9596 29.15C 34.9596 37.75 28.9096 44.35 20.6596 44.35C 12.4596 44.35 6.35957 37.75 6.35957 29.15ZM 46.3693 47L 49.8193 47L 49.8193 33.2L 58.5193 33.2C 64.7693 33.2 69.3693 29 69.3693 22.45C 69.3693 15.95 64.7693 11.85 58.5193 11.85L 46.3693 11.85L 46.3693 47ZM 49.8193 30.1L 49.8193 14.95L 58.1193 14.95C 62.7693 14.95 65.8193 17.7 65.8193 22.45C 65.8193 27.25 62.7693 30.1 58.0693 30.1L 49.8193 30.1ZM 73.8533 29.15C 73.8533 39.5 81.5033 47.6 91.7533 47.6C 102.053 47.6 109.653 39.5 109.653 29.15C 109.653 19.1 102.053 11.25 91.7533 11.25C 81.5033 11.25 73.8533 19.1 73.8533 29.15ZM 77.4533 29.15C 77.4533 20.85 83.5533 14.5 91.7533 14.5C 100.003 14.5 106.053 20.85 106.053 29.15C 106.053 37.75 100.003 44.35 91.7533 44.35C 83.5533 44.35 77.4533 37.75 77.4533 29.15ZM 117.463 47L 120.913 47L 120.913 21.7C 120.913 19.85 120.613 16.95 120.613 16.95L 120.713 16.95C 120.713 16.95 122.413 19.95 123.613 21.7L 141.563 47L 144.913 47L 144.913 11.85L 141.463 11.85L 141.463 37.15C 141.463 39 141.763 41.9 141.763 41.9L 141.663 41.9C 141.663 41.9 139.963 38.9 138.763 37.15L 120.813 11.85L 117.463 11.85L 117.463 47ZM 155.012 47L 175.712 47L 175.712 43.9L 158.462 43.9L 158.462 30.85L 171.812 30.85L 171.812 27.75L 158.462 27.75L 158.462 14.95L 174.762 14.95L 174.762 11.85L 155.012 11.85L 155.012 47Z"/>
</defs>
</svg>
